<?xml version="1.0" encoding="UTF-8" standalone="no"?>
<!-- Created with Inkscape (http://www.inkscape.org/) -->

<svg
   width="1137"
   height="403.5"
   viewBox="0 0 300.82978 106.75974"
   version="1.1"
   id="svg1"
   inkscape:version="1.3 (0e150ed6c4, 2023-07-21)"
   sodipodi:docname="imagotipo-blanco.svg"
   xmlns:inkscape="http://www.inkscape.org/namespaces/inkscape"
   xmlns:sodipodi="http://sodipodi.sourceforge.net/DTD/sodipodi-0.dtd"
   xmlns="http://www.w3.org/2000/svg"
   xmlns:svg="http://www.w3.org/2000/svg">
  <sodipodi:namedview
     id="namedview1"
     pagecolor="#ffffff"
     bordercolor="#000000"
     borderopacity="0.25"
     inkscape:showpageshadow="2"
     inkscape:pageopacity="0.0"
     inkscape:pagecheckerboard="0"
     inkscape:deskcolor="#d1d1d1"
     inkscape:document-units="mm"
     inkscape:zoom="0.22315867"
     inkscape:cx="826.76599"
     inkscape:cy="100.82512"
     inkscape:window-width="1366"
     inkscape:window-height="697"
     inkscape:window-x="-8"
     inkscape:window-y="-8"
     inkscape:window-maximized="1"
     inkscape:current-layer="layer1" />
  <defs
     id="defs1">
    <inkscape:path-effect
       effect="mirror_symmetry"
       start_point="33.602083,92.30651"
       end_point="33.602083,131.89479"
       center_point="33.602083,112.10065"
       id="path-effect12"
       is_visible="true"
       lpeversion="1.2"
       lpesatellites=""
       mode="free"
       discard_orig_path="false"
       fuse_paths="false"
       oposite_fuse="false"
       split_items="false"
       split_open="false"
       link_styles="false" />
  </defs>
  <g
     inkscape:label="Capa 1"
     inkscape:groupmode="layer"
     id="layer1">
    <path
       style="fill:#ffffff;fill-opacity:1;stroke:none;stroke-width:0.81155;stroke-opacity:1"
       d="m 123.56257,29.406973 v 54.516056 c 0,0 8.32087,31.561941 46.76906,16.354831 0,1.43463 0,5.05709 0,5.05709 h 13.48555 V 43.394658 h 4.80601 c 0,0 -5.37986,17.861172 18.14813,28.190543 4.56129,2.633475 18.48802,6.936837 15.95194,14.748003 -0.60867,1.623112 -5.68086,15.013706 -18.05703,2.231784 -12.37614,0 -12.70752,0 -12.70752,0 0,0 0.63571,20.390202 23.56204,18.361322 5.88373,-1.01443 23.73787,-4.66641 20.08588,-27.795601 -1.82599,-6.89819 -19.22329,-18.448737 -22.6664,-20.600681 -3.44312,-2.151941 -15.6375,-9.181656 -6.16891,-15.637513 13.19863,0.143548 35.29197,0 35.29197,0 0,0 -24.53224,44.33017 23.67145,61.402305 5.88199,0 19.79794,3.01272 29.69691,-6.742762 -9.61204,-9.612059 -9.61204,-9.612059 -9.61204,-9.612059 0,0 -18.7937,11.046686 -34.00081,-12.481283 -2.15194,-5.738544 -5.16469,-19.654487 5.30814,-29.410001 2.43886,-1.865029 16.21134,-7.603542 25.10609,0.717314 -15.63752,25.106085 -14.57155,25.238623 -14.57155,25.238623 h 13.63903 l 18.62156,-28.886539 c 0,0 -10.37241,-13.280739 -26.58379,-13.567683 -16.21134,-0.286791 -102.71973,0 -102.71973,0 v 46.536955 c 0,0 -2.97933,16.433903 -16.16703,14.709356 -4.26064,-0.304275 -15.62237,-0.507205 -18.2599,-13.289144 0,-14.20215 0,-33.375043 0,-33.375043 z"
       id="path7-1" />
    <path
       style="fill:#ffffff;fill-opacity:1;stroke:none;stroke-width:0.264583;stroke-opacity:1"
       d="m 16.66875,116.68125 c 0,0 0.152962,0.94671 0.608748,2.36781 0.455787,1.4211 1.214397,3.3166 2.425692,5.21415 1.211296,1.89756 2.120022,2.7983 3.8262,4.30076 l 2.557363,-3.45684 c -1.102485,-0.90129 -2.110523,-2.04146 -2.995,-3.42001 -0.884476,-1.37855 -1.64539,-2.99547 -2.253627,-4.85025 v -12.01918 l 8.862199,14.8361 v 3.74126 l 1.752018,1.55443 V 92.306509 h -1.752018 v 19.245111 l -11.0472,-18.881309 h -7.521349 c 0,0 -2.942861,7.141493 5.382585,7.141493 0,2.245066 0.154389,16.869446 0.154389,16.869446 z m 33.866666,0 c 0,0 -0.152962,0.94671 -0.608748,2.36781 -0.455787,1.4211 -1.214397,3.3166 -2.425692,5.21415 -1.211296,1.89756 -2.120022,2.7983 -3.8262,4.30076 l -2.557363,-3.45684 c 1.102485,-0.90129 2.110523,-2.04146 2.995,-3.42001 0.884476,-1.37855 1.64539,-2.99547 2.253627,-4.85025 v -12.01918 l -8.862199,14.8361 v 3.74126 l -1.752018,1.55443 V 92.306509 h 1.752018 v 19.245111 l 11.0472,-18.881309 h 7.521349 c 0,0 2.942861,7.141493 -5.382585,7.141493 0,2.245066 -0.154389,16.869446 -0.154389,16.869446 z"
       id="path12"
       inkscape:path-effect="#path-effect12"
       inkscape:original-d="m 16.66875,116.68125 c 0,0 0.152962,0.94671 0.608748,2.36781 0.455787,1.4211 1.214397,3.3166 2.425692,5.21415 1.211296,1.89756 2.120022,2.7983 3.8262,4.30076 l 2.557363,-3.45684 c -1.102485,-0.90129 -2.110523,-2.04146 -2.995,-3.42001 -0.884476,-1.37855 -1.64539,-2.99547 -2.253627,-4.85025 v -12.01918 l 8.862199,14.8361 v 3.74126 l 1.752018,1.55443 V 92.306509 h -1.752018 v 19.245111 l -11.0472,-18.881309 h -7.521349 c 0,0 -2.942861,7.141493 5.382585,7.141493 0,2.245066 0.154389,16.869446 0.154389,16.869446 z"
       sodipodi:nodetypes="cssccscccccccccccc"
       transform="matrix(2.9442813,0,0,2.9442813,-31.273981,-271.76272)" />
    <path
       style="fill:#ffffff;fill-opacity:1;stroke:none;stroke-width:0.779007;stroke-opacity:1"
       d="m 65.456643,0.35306588 h 4.406731 V 97.576625 h -4.406731 z"
       id="path13" />
    <rect
       style="fill:#ffffff;fill-opacity:1;stroke:none;stroke-width:0.849435;stroke-opacity:1"
       id="rect15"
       width="34.896698"
       height="4.0577559"
       x="50.211658"
       y="4.984375" />
  </g>
</svg>
