<?xml version="1.0" encoding="UTF-8" standalone="no"?>
<!-- Created with Inkscape (http://www.inkscape.org/) -->

<svg
   width="512"
   height="398"
   viewBox="0 0 135.46666 105.30455"
   version="1.1"
   id="svg1"
   inkscape:version="1.3 (0e150ed6c4, 2023-07-21)"
   sodipodi:docname="isotipo.svg"
   xmlns:inkscape="http://www.inkscape.org/namespaces/inkscape"
   xmlns:sodipodi="http://sodipodi.sourceforge.net/DTD/sodipodi-0.dtd"
   xmlns="http://www.w3.org/2000/svg"
   xmlns:svg="http://www.w3.org/2000/svg">
  <sodipodi:namedview
     id="namedview1"
     pagecolor="#ffffff"
     bordercolor="#000000"
     borderopacity="0.25"
     inkscape:showpageshadow="2"
     inkscape:pageopacity="0.0"
     inkscape:pagecheckerboard="0"
     inkscape:deskcolor="#d1d1d1"
     inkscape:document-units="px"
     inkscape:zoom="0.30551517"
     inkscape:cx="-1.63658"
     inkscape:cy="486.06425"
     inkscape:window-width="1366"
     inkscape:window-height="697"
     inkscape:window-x="-8"
     inkscape:window-y="-8"
     inkscape:window-maximized="1"
     inkscape:current-layer="layer1" />
  <defs
     id="defs1">
    <inkscape:path-effect
       effect="mirror_symmetry"
       start_point="33.602083,92.30651"
       end_point="33.602083,131.89479"
       center_point="33.602083,112.10065"
       id="path-effect12"
       is_visible="true"
       lpeversion="1.2"
       lpesatellites=""
       mode="free"
       discard_orig_path="false"
       fuse_paths="false"
       oposite_fuse="false"
       split_items="false"
       split_open="false"
       link_styles="false" />
  </defs>
  <g
     inkscape:label="Capa 1"
     inkscape:groupmode="layer"
     id="layer1">
    <g
       id="g1"
       transform="translate(-0.02188195,-19.351789)">
      <path
         style="fill:#6b34e8;fill-opacity:1;stroke:none;stroke-width:0.264583;stroke-opacity:1"
         d="m 16.66875,116.68125 c 0,0 0.152962,0.94671 0.608748,2.36781 0.455787,1.4211 1.214397,3.3166 2.425692,5.21415 1.211296,1.89756 2.120022,2.7983 3.8262,4.30076 l 2.557363,-3.45684 c -1.102485,-0.90129 -2.110523,-2.04146 -2.995,-3.42001 -0.884476,-1.37855 -1.64539,-2.99547 -2.253627,-4.85025 v -12.01918 l 8.862199,14.8361 v 3.74126 l 1.752018,1.55443 V 92.306509 h -1.752018 v 19.245111 l -11.0472,-18.881309 h -8.099176 c 0,0 -1.243369,7.107503 5.960412,7.141493 0,2.245066 0.154389,16.869446 0.154389,16.869446 z m 33.866666,0 c 0,0 -0.152962,0.94671 -0.608748,2.36781 -0.455787,1.4211 -1.214397,3.3166 -2.425692,5.21415 -1.211296,1.89756 -2.120022,2.7983 -3.8262,4.30076 l -2.557363,-3.45684 c 1.102485,-0.90129 2.110523,-2.04146 2.995,-3.42001 0.884476,-1.37855 1.64539,-2.99547 2.253627,-4.85025 v -12.01918 l -8.862199,14.8361 v 3.74126 l -1.752018,1.55443 V 92.306509 h 1.752018 v 19.245111 l 11.0472,-18.881309 h 8.099176 c 0,0 1.243369,7.107503 -5.960412,7.141493 0,2.245066 -0.154389,16.869446 -0.154389,16.869446 z"
         id="path12"
         inkscape:path-effect="#path-effect12"
         inkscape:original-d="m 16.66875,116.68125 c 0,0 0.152962,0.94671 0.608748,2.36781 0.455787,1.4211 1.214397,3.3166 2.425692,5.21415 1.211296,1.89756 2.120022,2.7983 3.8262,4.30076 l 2.557363,-3.45684 c -1.102485,-0.90129 -2.110523,-2.04146 -2.995,-3.42001 -0.884476,-1.37855 -1.64539,-2.99547 -2.253627,-4.85025 v -12.01918 l 8.862199,14.8361 v 3.74126 l 1.752018,1.55443 V 92.306509 h -1.752018 v 19.245111 l -11.0472,-18.881309 h -8.099176 c 0,0 -1.243369,7.107503 5.960412,7.141493 0,2.245066 0.154389,16.869446 0.154389,16.869446 z"
         sodipodi:nodetypes="cssccscccccccccccc"
         transform="matrix(-2.9268708,0,0,2.9268708,166.10417,-251.73298)" />
      <path
         style="fill:#6b34e8;fill-opacity:1;stroke:none;stroke-width:0.7744;stroke-opacity:1"
         d="m 69.945534,18.773681 h -4.380672 v 96.648649 h 4.380672 z"
         id="path13" />
      <rect
         style="fill:#6b34e8;fill-opacity:1;stroke:none;stroke-width:0.844412;stroke-opacity:1"
         id="rect15"
         width="34.690342"
         height="4.033761"
         x="-85.100372"
         y="23.3776"
         transform="scale(-1,1)" />
    </g>
  </g>
</svg>
