<?xml version="1.0" encoding="UTF-8" standalone="no"?>
<!-- Created with Inkscape (http://www.inkscape.org/) -->

<svg
   width="500"
   height="500"
   viewBox="0 0 132.29166 132.29167"
   version="1.1"
   id="svg1"
   xml:space="preserve"
   sodipodi:docname="Lyre Icon.svg"
   inkscape:version="1.3 (0e150ed6c4, 2023-07-21)"
   xmlns:inkscape="http://www.inkscape.org/namespaces/inkscape"
   xmlns:sodipodi="http://sodipodi.sourceforge.net/DTD/sodipodi-0.dtd"
   xmlns="http://www.w3.org/2000/svg"
   xmlns:svg="http://www.w3.org/2000/svg"><sodipodi:namedview
     id="namedview1"
     pagecolor="#ffffff"
     bordercolor="#000000"
     borderopacity="0.25"
     inkscape:showpageshadow="2"
     inkscape:pageopacity="0.0"
     inkscape:pagecheckerboard="0"
     inkscape:deskcolor="#d1d1d1"
     inkscape:document-units="px"
     inkscape:zoom="0.35355339"
     inkscape:cx="125.86501"
     inkscape:cy="241.83052"
     inkscape:window-width="1366"
     inkscape:window-height="697"
     inkscape:window-x="-8"
     inkscape:window-y="-8"
     inkscape:window-maximized="1"
     inkscape:current-layer="layer1" /><defs
     id="defs1"><inkscape:path-effect
       effect="mirror_symmetry"
       start_point="56.266944,-9.9218749"
       end_point="56.266944,0.008268265"
       center_point="56.266944,-4.9568033"
       id="path-effect1"
       is_visible="true"
       lpeversion="1.2"
       lpesatellites=""
       mode="free"
       discard_orig_path="false"
       fuse_paths="false"
       oposite_fuse="false"
       split_items="false"
       split_open="false"
       link_styles="false" /><inkscape:path-effect
       effect="mirror_symmetry"
       start_point="77.031305,-37.188595"
       end_point="77.031305,23.345191"
       center_point="77.031305,-6.921702"
       id="path-effect4"
       is_visible="true"
       lpeversion="1.2"
       lpesatellites=""
       mode="free"
       discard_orig_path="false"
       fuse_paths="false"
       oposite_fuse="false"
       split_items="false"
       split_open="false"
       link_styles="false" /><inkscape:path-effect
       effect="mirror_symmetry"
       start_point="68.28,14.907241"
       end_point="68.684458,75.441027"
       center_point="68.482229,45.174134"
       id="path-effect3"
       is_visible="true"
       lpeversion="1.2"
       lpesatellites=""
       mode="free"
       discard_orig_path="false"
       fuse_paths="false"
       oposite_fuse="false"
       split_items="false"
       split_open="false"
       link_styles="false" /></defs><g
     inkscape:label="Capa 1"
     inkscape:groupmode="layer"
     id="layer1"><g
       id="g2"
       transform="matrix(2.0490055,0,0,2.0490055,-55.127269,138.67169)"
       style="fill:#000000"><g
         id="g6"
         style="fill:#000000"><path
           style="fill:#000000;stroke-width:0.265;stroke-dasharray:none"
           d="m 57.79856,-28.756469 c 1.633758,2.287262 -1.475527,7.937581 -5.240668,16.332827 -0.814083,1.984332 -5.138907,12.77095304 -1.373767,21.217073 0.966724,1.62817 6.105633,13.9412 25.84718,14.55176 v -9.52972 c 0,0 -16.704346,1.43911 -15.696968,-16.69369 0.863467,-7.339473 5.52836,-21.682832 5.682371,-23.1697 0.966725,-3.151532 -3.64592,-10.21769 -10.4817,-11.009201 -6.83578,-0.791512 -9.696544,2.727078 -8.196323,7.771201 1.043354,2.57241 6.353782,6.061994 9.459875,0.52945 z m 38.46549,0 c -1.633758,2.287262 1.475527,7.937581 5.24067,16.332827 0.81408,1.984332 5.13891,12.77095304 1.37377,21.217073 -0.96673,1.62817 -6.105638,13.9412 -25.847185,14.55176 v -9.52972 c 0,0 16.704346,1.43911 15.696968,-16.69369 -0.863467,-7.339473 -5.52836,-21.682832 -5.682371,-23.1697 -0.966725,-3.151532 3.64592,-10.21769 10.4817,-11.009201 6.835778,-0.791512 9.696548,2.727078 8.196328,7.771201 -1.04336,2.57241 -6.353787,6.061994 -9.45988,0.52945 z"
           id="path3"
           sodipodi:nodetypes="cccccccscc"
           transform="translate(-17.844982,-30.509164)"
           inkscape:original-d="m 57.79856,-28.756469 c 1.633758,2.287262 -1.475527,7.937581 -5.240668,16.332827 -0.814083,1.984332 -5.138907,12.77095304 -1.373767,21.217073 0.966724,1.62817 6.105633,13.9412 25.84718,14.55176 v -9.52972 c 0,0 -16.704346,1.43911 -15.696968,-16.69369 0.863467,-7.339473 5.52836,-21.682832 5.682371,-23.1697 0.966725,-3.151532 -3.64592,-10.21769 -10.4817,-11.009201 -6.83578,-0.791512 -9.696544,2.727078 -8.196323,7.771201 1.043354,2.57241 6.353782,6.061994 9.459875,0.52945 z"
           inkscape:path-effect="#path-effect4" /><g
           id="g5"
           style="fill:#000000"><path
             style="fill:#000000;stroke-width:0.289426;stroke-dasharray:none"
             d="m 45.802585,-59.279926 v 3.77661 H 72.57006 v -3.622303 z"
             id="path4" /><path
             style="fill:#000000;stroke-width:0.333599;stroke-dasharray:none"
             d="m 52.510037,-15.467122 h 2.769232 v -47.652581 l -0.332011,-0.337744 -0.33201,-0.219273 -0.332011,-0.131511 -0.332011,-0.05519 -0.332011,0.05519 -0.33201,0.131511 -0.332011,0.219273 -0.33201,0.337744 z"
             id="path4-0-0-7"
             sodipodi:nodetypes="cccccccccccc" /><path
             style="fill:#000000;stroke-width:0.350029;stroke-dasharray:none"
             d="m 57.801707,-13.024869 h 2.769232 v -52.462026 l -0.332011,-0.371831 -0.33201,-0.241404 -0.332011,-0.144784 -0.332011,-0.06076 -0.332011,0.06076 -0.33201,0.144784 -0.332011,0.241404 -0.33201,0.371831 z"
             id="path4-0-0-7-9"
             sodipodi:nodetypes="cccccccccccc" /><path
             style="fill:#000000;stroke-width:0.333599;stroke-dasharray:none"
             d="m 63.129028,-15.467122 h 2.769232 v -47.652581 l -0.332011,-0.337744 -0.33201,-0.219273 -0.332011,-0.131511 -0.332011,-0.05519 -0.332011,0.05519 -0.33201,0.131511 -0.332011,0.219273 -0.33201,0.337744 z"
             id="path4-0-0-7-9-3"
             sodipodi:nodetypes="cccccccccccc" /></g></g><path
         style="fill:#000000;stroke-width:0.264583"
         d="m 56.091666,0 h -23.8125 c 0,0 -1.035653,-0.79609822 -1.035653,-2.1097958 0,-1.3254081 1.035653,-2.1097958 1.035653,-2.1097958 2.407193,-1.3324497 14.155208,-0.5429083 14.419792,-5.7022833 h 9.567957 v 9.93014313 z m 0.350556,0 h 23.8125 c 0,0 1.035653,-0.79609822 1.035653,-2.1097958 0,-1.3254081 -1.035653,-2.1097958 -1.035653,-2.1097958 C 77.847529,-5.5520413 66.099514,-4.7624999 65.83493,-9.9218749 h -9.567957 v 9.93014313 z"
         id="path1"
         inkscape:path-effect="#path-effect1"
         inkscape:original-d="m 56.091666,0 h -23.8125 c 0,0 -1.035653,-0.79609822 -1.035653,-2.1097958 0,-1.3254081 1.035653,-2.1097958 1.035653,-2.1097958 2.407193,-1.3324497 14.155208,-0.5429083 14.419792,-5.7022833 h 9.567957 v 9.93014313 z"
         transform="matrix(0.83549738,0,0,0.79857935,12.175439,-3.1150693)"
         sodipodi:nodetypes="cccccccc" /></g></g></svg>
