<?xml version="1.0" encoding="UTF-8" standalone="no"?>
<svg
   version="1.0"
   width="500"
   height="500"
   viewBox="0 0 75 75"
   id="svg2"
   sodipodi:docname="Speaker_Icon-on.svg"
   inkscape:version="1.3 (0e150ed6c4, 2023-07-21)"
   xmlns:inkscape="http://www.inkscape.org/namespaces/inkscape"
   xmlns:sodipodi="http://sodipodi.sourceforge.net/DTD/sodipodi-0.dtd"
   xmlns="http://www.w3.org/2000/svg"
   xmlns:svg="http://www.w3.org/2000/svg">
  <defs
     id="defs2" />
  <sodipodi:namedview
     id="namedview2"
     pagecolor="#ffffff"
     bordercolor="#000000"
     borderopacity="0.25"
     inkscape:showpageshadow="2"
     inkscape:pageopacity="0.0"
     inkscape:pagecheckerboard="0"
     inkscape:deskcolor="#d1d1d1"
     inkscape:zoom="0.501"
     inkscape:cx="212.57485"
     inkscape:cy="296.40719"
     inkscape:window-width="1366"
     inkscape:window-height="697"
     inkscape:window-x="-8"
     inkscape:window-y="-8"
     inkscape:window-maximized="1"
     inkscape:current-layer="svg2" />
  <path
     d="M 39.095609,20.64505 25.656414,30.891442 h -12.71921 v 13.185573 h 12.526482 l 13.631923,10.39418 z"
     style="fill:#ffffff;stroke:#ffffff;stroke-width:3.67779;stroke-linejoin:round;stroke-opacity:1"
     id="path1" />
  <path
     d="m 82.199465,31.908747 a 19.5,19.5 0 0 1 0,21.4 m 7.1,-28.5 a 30,30 0 0 1 0,35.6 m 6.5,-42.1 a 38.8,38.8 0 0 1 0,48.6"
     style="fill:none;stroke:#111111;stroke-width:5;stroke-linecap:round"
     id="path2" />
  <path
     style="fill:#ffffff;stroke:#ffffff;stroke-width:0.110333;stroke-opacity:1"
     d="m 52.106988,21.411052 c 0,0 7.380849,7.529578 6.800335,16.521207 0.16586,8.699223 -6.800335,15.863288 -6.800335,15.863288 0,0 -0.414655,2.99721 3.151374,2.046875 1.74155,-2.193081 7.546713,-7.821989 7.463781,-18.860496 -0.829309,-11.257815 -5.971025,-15.790183 -7.297919,-17.617749 -2.156204,-0.731027 -3.441633,0 -3.317236,2.046875 z"
     id="path3" />
  <path
     style="fill:#ffffff;stroke:#ffffff;stroke-width:0.0881108;stroke-opacity:1"
     d="m 48.134117,25.160442 c 0,0 6.130603,5.781218 5.648421,12.685006 0.137766,6.679274 -5.648421,12.179851 -5.648421,12.179851 0,0 -0.344415,2.301262 2.617561,1.571595 1.446547,-1.68385 6.268369,-6.005734 6.199486,-14.481114 -0.68883,-8.643767 -4.959589,-12.123725 -6.06172,-13.526933 -1.790962,-0.561284 -2.858652,0 -2.755327,1.571595 z"
     id="path3-5" />
  <path
     style="fill:#ffffff;stroke:#ffffff;stroke-width:0.0615368;stroke-opacity:1"
     d="m 44.649531,29.591102 c 0,0 4.653248,3.715163 4.28726,8.151717 0.104569,4.292277 -4.28726,7.827093 -4.28726,7.827093 0,0 -0.261419,1.478851 1.98678,1.009947 1.097957,-1.082085 4.757813,-3.859441 4.705529,-9.305945 -0.522836,-5.55471 -3.764423,-7.791021 -4.600962,-8.69276 -1.359375,-0.360695 -2.169772,0 -2.091347,1.009948 z"
     id="path3-5-4" />
</svg>
