<?xml version="1.0" encoding="UTF-8" standalone="no"?>
<!-- Created with Inkscape (http://www.inkscape.org/) -->

<svg
   width="154.784mm"
   height="53.150002mm"
   viewBox="0 0 154.78399 53.150002"
   version="1.1"
   id="svg1"
   inkscape:version="1.3 (0e150ed6c4, 2023-07-21)"
   sodipodi:docname="imagotipo.svg"
   xmlns:inkscape="http://www.inkscape.org/namespaces/inkscape"
   xmlns:sodipodi="http://sodipodi.sourceforge.net/DTD/sodipodi-0.dtd"
   xmlns="http://www.w3.org/2000/svg"
   xmlns:svg="http://www.w3.org/2000/svg">
  <sodipodi:namedview
     id="namedview1"
     pagecolor="#ffffff"
     bordercolor="#000000"
     borderopacity="0.25"
     inkscape:showpageshadow="2"
     inkscape:pageopacity="0.0"
     inkscape:pagecheckerboard="0"
     inkscape:deskcolor="#d1d1d1"
     inkscape:document-units="mm"
     inkscape:zoom="0.31559402"
     inkscape:cx="144.17257"
     inkscape:cy="77.631383"
     inkscape:window-width="1366"
     inkscape:window-height="697"
     inkscape:window-x="-8"
     inkscape:window-y="-8"
     inkscape:window-maximized="1"
     inkscape:current-layer="layer1" />
  <defs
     id="defs1" />
  <g
     inkscape:label="Capa 1"
     inkscape:groupmode="layer"
     id="layer1">
    <g
       id="g2"
       transform="translate(-14.809342,-105.57348)">
      <g
         id="g6-1-0-6-4-0"
         transform="matrix(0.10139566,0.0543713,-0.0546628,0.10085494,27.130924,94.444041)"
         style="fill:#6215d3;fill-opacity:1">
        <path
           style="fill:#6215d3;fill-opacity:1"
           d="m 151.75336,110.95174 -39.79462,148.51557 c 0,0 -25.374747,113.42168 67.34155,161.84019 92.71629,48.41851 66.51392,-45.01856 66.51392,-45.01856 0,0 -138.76934,-2.54957 -96.51936,-154.79521 42.24999,-152.245639 31.03562,-115.67919 31.03562,-115.67919 0,0 2.31791,-52.796781 -40.17706,-53.311871 -42.49497,-0.515091 -43.246766,74.403181 11.59995,58.449071 z"
           id="path2-2-8-0-3-9-6" />
        <path
           style="fill:#6215d3;fill-opacity:1"
           d="m 343.08379,110.95213 39.79462,148.51557 c 0,0 25.37475,113.42168 -67.34155,161.84019 -92.71629,48.41851 -66.51392,-45.01856 -66.51392,-45.01856 0,0 138.76935,-2.54957 96.51936,-154.79521 -42.24999,-152.245638 -31.03562,-115.67919 -31.03562,-115.67919 0,0 -2.31791,-52.796778 40.17706,-53.311868 42.49497,-0.51509 43.24677,74.403188 -11.59995,58.449068 z"
           id="path2-6-3-6-3-7-6" />
        <path
           style="fill:#6215d3;fill-opacity:1;stroke-width:1.03417"
           d="m 245.80852,376.28863 3.2202,-0.003 -1.60764,7.69242 z"
           id="path3-6-2-3-6-9" />
        <path
           style="fill:#6215d3;fill-opacity:1"
           d="m 178.84122,421.06492 v 31.30665 h 136.88195 v -31.28948 l -67.7257,-17.45467 z"
           id="path4-1-8-9-9-8" />
        <path
           style="fill:#6215d3;fill-opacity:1"
           d="M 179.25156,107.12668 H 319.25871 V 92.984541 H 178.62247 Z"
           id="path5-6-3-5-7-9" />
        <rect
           style="fill:#6215d3;fill-opacity:1"
           id="rect5-1-1-9-1-7"
           width="16"
           height="356"
           x="196.49747"
           y="67.627419" />
        <rect
           style="fill:#6215d3;fill-opacity:1"
           id="rect5-5-2-4-3-4-8"
           width="16"
           height="356"
           x="239.2822"
           y="51.627419" />
        <rect
           style="fill:#6215d3;fill-opacity:1"
           id="rect5-5-0-0-0-4-3-4"
           width="16"
           height="356"
           x="282.49747"
           y="65.627419" />
      </g>
      <path
         style="fill:#6215d3;fill-opacity:1;stroke-width:0.264583"
         d="m 55.995271,158.56179 -40.857257,0.29641 7.11531,-12.32408 5.01939,-19.031 8.37287,-7.39868 7.95368,-14.39584 c 0,0 6.20383,2.73809 11.800044,10.75084 1.399053,2.00318 2.760131,4.33603 3.976803,7.03819 1.216673,2.70215 2.28894,5.7736 3.110374,9.25398 0.821434,3.48039 1.243831,9.22225 0.71615,11.78169 -0.876982,4.25367 -3.783883,9.79127 -7.207364,14.02849 z"
         id="path9"
         sodipodi:nodetypes="ccccccssssc" />
      <g
         id="g6-1-0-6-3"
         transform="matrix(0.10139566,0.0543713,-0.0546628,0.10085494,28.836744,95.217061)"
         style="fill:#ffffff;fill-opacity:1">
        <path
           style="fill:#ffffff;fill-opacity:1"
           d="m 151.75336,110.95174 -39.79462,148.51557 c 0,0 -25.374747,113.42168 67.34155,161.84019 92.71629,48.41851 66.51392,-45.01856 66.51392,-45.01856 0,0 -138.76934,-2.54957 -96.51936,-154.79521 42.24999,-152.245639 31.03562,-115.67919 31.03562,-115.67919 0,0 2.31791,-52.796781 -40.17706,-53.311871 -42.49497,-0.515091 -43.246766,74.403181 11.59995,58.449071 z"
           id="path2-2-8-0-3-1" />
        <path
           style="fill:#ffffff;fill-opacity:1"
           d="m 343.08379,110.95213 39.79462,148.51557 c 0,0 25.37475,113.42168 -67.34155,161.84019 -92.71629,48.41851 -66.51392,-45.01856 -66.51392,-45.01856 0,0 138.76935,-2.54957 96.51936,-154.79521 -42.24999,-152.245638 -31.03562,-115.67919 -31.03562,-115.67919 0,0 -2.31791,-52.796778 40.17706,-53.311868 42.49497,-0.51509 43.24677,74.403188 -11.59995,58.449068 z"
           id="path2-6-3-6-3-0" />
        <path
           style="fill:#ffffff;fill-opacity:1;stroke-width:1.03417"
           d="m 245.80852,376.28863 3.2202,-0.003 -1.60764,7.69242 z"
           id="path3-6-2-3-63" />
        <path
           style="fill:#ffffff;fill-opacity:1"
           d="m 178.84122,421.06492 v 31.30665 h 136.88195 v -31.28948 l -67.7257,-17.45467 z"
           id="path4-1-8-9-2" />
        <path
           style="fill:#ffffff;fill-opacity:1"
           d="M 179.25156,107.12668 H 319.25871 V 92.984541 H 178.62247 Z"
           id="path5-6-3-5-8" />
        <rect
           style="fill:#ffffff;fill-opacity:1"
           id="rect5-1-1-9-8"
           width="16"
           height="356"
           x="196.49747"
           y="67.627419" />
        <rect
           style="fill:#ffffff;fill-opacity:1"
           id="rect5-5-2-4-3-3"
           width="16"
           height="356"
           x="239.2822"
           y="51.627419" />
        <rect
           style="fill:#ffffff;fill-opacity:1"
           id="rect5-5-0-0-0-4-2"
           width="16"
           height="356"
           x="282.49747"
           y="65.627419" />
      </g>
      <text
         xml:space="preserve"
         style="font-style:normal;font-variant:normal;font-weight:normal;font-stretch:normal;font-size:42.3333px;font-family:'Tw Cen MT';-inkscape-font-specification:'Tw Cen MT';fill:#6215d3;fill-opacity:1;stroke-width:0.264583"
         x="66.501526"
         y="150.19765"
         id="text3-2-0-1"><tspan
           sodipodi:role="line"
           id="tspan3-3-3-3"
           style="font-style:normal;font-variant:normal;font-weight:bold;font-stretch:normal;font-size:42.3333px;font-family:Nunito;-inkscape-font-specification:'Nunito Bold';fill:#6215d3;fill-opacity:1;stroke-width:0.264583"
           x="66.501526"
           y="150.19765">Muse</tspan></text>
    </g>
  </g>
</svg>
